<?xml version="1.0" encoding="UTF-8"?>
<svg width="2099px" height="1087px" viewBox="0 0 2099 1087" version="1.1" xmlns="http://www.w3.org/2000/svg" xmlns:xlink="http://www.w3.org/1999/xlink">
    <title>logo</title>
    <g id="Page-1" stroke="none" stroke-width="1" fill="none" fill-rule="evenodd">
        <path d="M2099,494.319353 L1560.79487,0.358982827 L1485.08735,82.925033 L1933.59162,494.319353 L165.767179,494.319353 L614.271453,82.5660502 L538.563932,0 L0.358803419,494.319353 L0,494.319353 L0,819.916777 C0,967.099736 141.72735,1087 315.747009,1087 L647.640171,1087 C821.659829,1087 963.387179,967.099736 963.387179,819.916777 L963.387179,605.963012 L1135.61282,605.963012 L1135.61282,819.916777 C1135.61282,967.099736 1277.34017,1087 1451.35983,1087 L1783.25299,1087 C1957.27265,1087 2099,967.099736 2099,819.916777 L2099,494.319353 Z" id="Glasses" fill-opacity="0.17" fill="#9146FF" fill-rule="nonzero"></path>
        <path d="M675.78,223 C681.995385,223 687.123077,225.169014 691.473846,229.507042 C695.824615,233.84507 698,239.112676 698,245.15493 L698,322 L619.22,322 C613.004615,322 607.876923,319.830986 603.526154,315.492958 C599.175385,311.15493 597,305.887324 597,299.84507 L597,263.28169 L679.509231,263.28169 L679.509231,245.15493 C679.509231,244.070423 679.198462,243.295775 678.421538,242.521127 C677.644615,241.746479 676.867692,241.43662 675.78,241.43662 L597,241.43662 L597,223 L675.78,223 Z M679,304 L679,282 L615,282 L615,300.255319 C615,301.347518 615.31068,302.12766 616.087379,302.907801 C616.864078,303.687943 617.640777,304 618.728155,304 L679,304 L679,304 Z M857.31097,223 L877,223 L839.792384,322 L824.754306,322 L791.422484,248.408451 L759.951043,322 L759.640979,321.84507 L759.796011,322 L744.912965,322 L706,223 L725.533998,223 L752.354488,288.690141 L780.880326,223 L801.964642,223 L832.19583,288.690141 L857.31097,223 Z M960.78,223 C966.995385,223 972.123077,225.169014 976.473846,229.507042 C980.824615,233.84507 983,239.112676 983,245.15493 L983,281.71831 L900.490769,281.71831 L900.490769,299.84507 C900.490769,300.929577 900.801538,301.704225 901.578462,302.478873 C902.355385,303.253521 903.132308,303.56338 904.22,303.56338 L983,303.56338 L983,322 L904.22,322 C898.004615,322 892.876923,319.830986 888.526154,315.492958 C884.175385,311.15493 882,305.887324 882,299.84507 L882,245.15493 C882,238.957746 884.175385,233.84507 888.526154,229.507042 C892.876923,225.169014 898.16,223 904.22,223 L960.78,223 L960.78,223 Z M901,263 L965,263 L965,244.744681 C965,243.652482 964.68932,242.87234 963.912621,242.092199 C963.135922,241.312057 962.359223,241 961.271845,241 L904.728155,241 C903.640777,241 902.864078,241.312057 902.087379,242.092199 C901.31068,242.87234 901,243.652482 901,244.744681 L901,263 L901,263 Z M1100,245.15493 L1100,248.873239 L1081.50923,248.873239 L1081.50923,245.15493 C1081.50923,244.070423 1081.19846,243.295775 1080.42154,242.521127 C1079.64462,241.746479 1078.86769,241.43662 1077.78,241.43662 L1021.22,241.43662 C1020.13231,241.43662 1019.35538,241.746479 1018.57846,242.521127 C1017.80154,243.295775 1017.49077,244.070423 1017.49077,245.15493 L1017.49077,259.56338 C1017.49077,260.647887 1017.80154,261.422535 1018.57846,262.197183 C1019.35538,262.971831 1020.13231,263.28169 1021.22,263.28169 L1077.78,263.28169 C1083.99538,263.28169 1089.12308,265.450704 1093.47385,269.788732 C1097.82462,274.126761 1100,279.394366 1100,285.43662 L1100,299.84507 C1100,306.042254 1097.82462,311.15493 1093.47385,315.492958 C1089.12308,319.830986 1083.84,322 1077.78,322 L1021.22,322 C1015.00462,322 1009.87692,319.830986 1005.52615,315.492958 C1001.17538,311.15493 999,305.887324 999,299.84507 L999,296.126761 L1017.49077,296.126761 L1017.49077,299.84507 C1017.49077,300.929577 1017.80154,301.704225 1018.57846,302.478873 C1019.35538,303.253521 1020.13231,303.56338 1021.22,303.56338 L1077.78,303.56338 C1078.86769,303.56338 1079.64462,303.253521 1080.42154,302.478873 C1081.19846,301.704225 1081.50923,300.929577 1081.50923,299.84507 L1081.50923,285.43662 C1081.50923,284.352113 1081.19846,283.577465 1080.42154,282.802817 C1079.64462,282.028169 1078.86769,281.71831 1077.78,281.71831 L1021.22,281.71831 C1015.00462,281.71831 1009.87692,279.549296 1005.52615,275.211268 C1001.17538,270.873239 999,265.605634 999,259.56338 L999,245.15493 C999,238.957746 1001.17538,233.84507 1005.52615,229.507042 C1009.87692,225.169014 1015.16,223 1021.22,223 L1077.78,223 C1083.99538,223 1089.12308,225.169014 1093.47385,229.507042 C1097.82462,233.690141 1100,238.957746 1100,245.15493 Z M1139.22,223 L1195.78,223 C1201.99538,223 1207.12308,225.169014 1211.47385,229.507042 C1215.82462,233.84507 1218,239.112676 1218,245.15493 L1218,299.84507 C1218,306.042254 1215.82462,311.15493 1211.47385,315.492958 C1207.12308,319.830986 1201.84,322 1195.78,322 L1139.22,322 C1133.00462,322 1127.87692,319.830986 1123.52615,315.492958 C1119.17538,311.15493 1117,305.887324 1117,299.84507 L1117,245.15493 C1117,238.957746 1119.17538,233.84507 1123.52615,229.507042 C1127.87692,225.169014 1133.16,223 1139.22,223 L1139.22,223 Z M1195.27184,242 L1138.72816,242 C1137.64078,242 1136.86408,242.309227 1136.08738,243.082294 C1135.31068,243.855362 1135,244.628429 1135,245.710723 L1135,300.289277 C1135,301.371571 1135.31068,302.144638 1136.08738,302.917706 C1136.86408,303.690773 1137.64078,304 1138.72816,304 L1195.27184,304 C1196.35922,304 1197.13592,303.690773 1197.91262,302.917706 C1198.68932,302.144638 1199,301.371571 1199,300.289277 L1199,245.710723 C1199,244.628429 1198.68932,243.855362 1197.91262,243.082294 C1197.13592,242.46384 1196.35922,242 1195.27184,242 Z M1361.90814,223 C1368.08768,223 1373.1858,225.169014 1377.51148,229.507042 C1381.83716,233.84507 1384,239.112676 1384,245.15493 L1384,322 L1365.77035,322 L1365.77035,245.15493 C1365.77035,244.070423 1365.46138,243.295775 1364.68894,242.521127 C1363.91649,241.746479 1362.98956,241.43662 1361.90814,241.43662 L1322.97704,241.43662 C1321.89562,241.43662 1321.12317,241.746479 1320.35073,242.521127 C1319.57829,243.295775 1319.26931,244.070423 1319.26931,245.15493 L1319.26931,322 L1300.88518,322 L1300.88518,245.15493 C1300.88518,244.070423 1300.5762,243.295775 1299.80376,242.521127 C1299.03132,241.746479 1298.25887,241.43662 1297.17745,241.43662 L1258.09186,241.43662 C1257.01044,241.43662 1256.238,241.746479 1255.46555,242.521127 C1254.69311,243.295775 1254.38413,244.070423 1254.38413,245.15493 L1254.38413,322 L1236,322 L1236,223 L1361.90814,223 Z M1479.78,223 C1485.99538,223 1491.12308,225.169014 1495.47385,229.507042 C1499.82462,233.84507 1502,239.112676 1502,245.15493 L1502,281.71831 L1419.49077,281.71831 L1419.49077,299.84507 C1419.49077,300.929577 1419.80154,301.704225 1420.57846,302.478873 C1421.35538,303.253521 1422.13231,303.56338 1423.22,303.56338 L1502,303.56338 L1502,322 L1423.22,322 C1417.00462,322 1411.87692,319.830986 1407.52615,315.492958 C1403.17538,311.15493 1401,305.887324 1401,299.84507 L1401,245.15493 C1401,238.957746 1403.17538,233.84507 1407.52615,229.507042 C1411.87692,225.169014 1417.16,223 1423.22,223 L1479.78,223 L1479.78,223 Z M1420,263 L1484,263 L1484,244.744681 C1484,243.652482 1483.68932,242.87234 1482.91262,242.092199 C1482.13592,241.312057 1481.35922,241 1480.27184,241 L1423.72816,241 C1422.64078,241 1421.86408,241.312057 1421.08738,242.092199 C1420.31068,242.87234 1420,243.652482 1420,244.744681 L1420,263 L1420,263 Z" id="awesome" fill="#2C0468" fill-rule="nonzero"></path>
        <path d="M579.92,455 L579.92,385 L499.92,385 L499.92,595 L539.92,635 L649.92,635 L649.92,555 L579.92,555 L579.92,535 L649.92,535 L649.92,455 L579.92,455 Z M869.92,455 L869.92,555 L849.92,555 L849.92,455 L769.92,455 L769.92,555 L749.92,555 L749.92,455 L669.92,455 L669.92,595 L709.92,635 L949.92,635 L949.92,455 L869.92,455 Z M969.92,455 L969.92,635 L1049.92,635 L1049.92,455 L969.92,455 Z M969.92,385 L969.92,435 L1049.92,435 L1049.92,385 L969.92,385 Z M1279.92,455 L1239.92,495 L1239.92,595 L1279.92,635 L1399.92,635 L1399.92,555 L1319.92,555 L1319.92,535 L1399.92,535 L1399.92,455 L1279.92,455 Z M1559.92,455 L1499.92,455 L1499.92,385 L1419.92,385 L1419.92,635 L1499.92,635 L1499.92,535 L1519.92,535 L1519.92,635 L1599.92,635 L1599.92,495 L1559.92,455 Z M1149.92,455 L1149.92,385 L1069.92,385 L1069.92,595 L1109.92,635 L1219.92,635 L1219.92,555 L1149.92,555 L1149.92,535 L1219.92,535 L1219.92,455 L1149.92,455 Z" id="twitch" fill="#9146FF" fill-rule="nonzero"></path>
        <g id="development" transform="translate(329.000000, 704.000000)">
            <rect id="Rectangle" stroke="#9146FF" stroke-width="8" fill="#FFFFFF" x="4" y="4" width="1433" height="222" rx="45"></rect>
            <g transform="translate(66.640625, 40.167969)" fill-rule="nonzero">
                <path d="M44.921875,130.273438 C51.171875,130.273438 56.8033854,129.117839 61.8164062,126.806641 C66.8294271,124.495443 70.9309896,121.158854 74.1210938,116.796875 L74.1210938,116.796875 L74.1210938,123.632812 C74.1210938,124.934896 74.625651,125.960286 75.6347656,126.708984 C76.6438802,127.457682 78.0924479,127.832031 79.9804688,127.832031 L79.9804688,127.832031 L94.921875,127.832031 C99.3489583,127.832031 102.490234,126.985677 104.345703,125.292969 C106.201172,123.60026 107.128906,120.833333 107.128906,116.992188 C107.128906,113.541667 106.25,110.921224 104.492188,109.130859 C102.734375,107.340495 100.097656,106.445312 96.5820312,106.445312 L96.5820312,106.445312 L94.921875,106.445312 L94.921875,6.4453125 C94.921875,3.97135417 94.514974,2.27864583 93.7011719,1.3671875 C92.8873698,0.455729167 91.3736979,0 89.1601562,0 L89.1601562,0 L58.7890625,0 C54.296875,0 51.1067708,0.846354167 49.21875,2.5390625 C47.3307292,4.23177083 46.3867188,6.99869792 46.3867188,10.8398438 C46.3867188,14.6158854 47.3307292,17.3665365 49.21875,19.0917969 C51.1067708,20.8170573 54.296875,21.6796875 58.7890625,21.6796875 L58.7890625,21.6796875 L71.7773438,21.6796875 L71.7773438,46.3867188 C68.1315104,43.5872396 64.1113281,41.422526 59.7167969,39.8925781 C55.3222656,38.3626302 50.8138021,37.5976562 46.1914062,37.5976562 C32.7799479,37.5976562 21.7285156,42.0572917 13.0371094,50.9765625 C4.34570312,59.8958333 0,71.1263021 0,84.6679688 C0,97.6888021 4.296875,108.544922 12.890625,117.236328 C21.484375,125.927734 32.1614583,130.273438 44.921875,130.273438 Z M49.1210938,109.472656 C42.6757812,109.472656 37.3697917,107.080078 33.203125,102.294922 C29.0364583,97.5097656 26.953125,91.3411458 26.953125,83.7890625 C26.953125,76.4322917 29.0527344,70.3613281 33.2519531,65.5761719 C37.4511719,60.7910156 42.7408854,58.3984375 49.1210938,58.3984375 C55.5013021,58.3984375 60.8072917,60.8072917 65.0390625,65.625 C69.2708333,70.4427083 71.3867188,76.4973958 71.3867188,83.7890625 C71.3867188,91.2760417 69.2871094,97.4283854 65.0878906,102.246094 C60.8886719,107.063802 55.5664062,109.472656 49.1210938,109.472656 Z" id="d" fill="#4F34CA"></path>
                <path d="M175.195312,130.273438 C188.541667,130.273438 199.739583,128.059896 208.789062,123.632812 C217.838542,119.205729 222.363281,113.932292 222.363281,107.8125 C222.363281,105.013021 221.598307,102.718099 220.068359,100.927734 C218.538411,99.1373698 216.56901,98.2421875 214.160156,98.2421875 C212.532552,98.2421875 207.779948,100.211589 199.902344,104.150391 C192.02474,108.089193 184.049479,110.058594 175.976562,110.058594 C167.903646,110.058594 161.442057,108.268229 156.591797,104.6875 C151.741536,101.106771 148.470052,95.703125 146.777344,88.4765625 L146.777344,88.4765625 L209.765625,88.4765625 C215.559896,88.4765625 219.384766,87.7604167 221.240234,86.328125 C223.095703,84.8958333 224.023438,82.2591146 224.023438,78.4179688 C224.023438,66.3736979 219.401042,56.2011719 210.15625,47.9003906 C200.911458,39.5996094 189.257812,35.4492188 175.195312,35.4492188 C159.440104,35.4492188 146.630859,39.8763021 136.767578,48.7304688 C126.904297,57.5846354 121.972656,68.9453125 121.972656,82.8125 C121.972656,96.7447917 126.904297,108.138021 136.767578,116.992188 C146.630859,125.846354 159.440104,130.273438 175.195312,130.273438 Z M199.414062,73.2421875 L146.777344,73.2421875 C148.470052,66.8619792 151.48112,62.093099 155.810547,58.9355469 C160.139974,55.7779948 165.852865,54.1992188 172.949219,54.1992188 C180.30599,54.1992188 186.279297,55.859375 190.869141,59.1796875 C195.458984,62.5 198.307292,67.1875 199.414062,73.2421875 L199.414062,73.2421875 Z" id="e" fill="#C039CF"></path>
                <path d="M292.382812,130.273438 C295.963542,130.273438 298.616536,129.76888 300.341797,128.759766 C302.067057,127.750651 304.003906,125.032552 306.152344,120.605469 L306.152344,120.605469 L335.15625,58.984375 L336.816406,58.984375 C340.332031,58.984375 343.001302,58.0729167 344.824219,56.25 C346.647135,54.4270833 347.558594,51.7578125 347.558594,48.2421875 C347.558594,44.4661458 346.630859,41.7480469 344.775391,40.0878906 C342.919922,38.4277344 339.713542,37.5976562 335.15625,37.5976562 L335.15625,37.5976562 L312.207031,37.5976562 C307.64974,37.5976562 304.443359,38.4114583 302.587891,40.0390625 C300.732422,41.6666667 299.804688,44.4010417 299.804688,48.2421875 C299.804688,51.7578125 300.732422,54.4270833 302.587891,56.25 C304.443359,58.0729167 307.128906,58.984375 310.644531,58.984375 L310.644531,58.984375 L312.207031,58.984375 L293.75,100.585938 L276.171875,58.984375 L277.832031,58.984375 C281.282552,58.984375 283.935547,58.0729167 285.791016,56.25 C287.646484,54.4270833 288.574219,51.7578125 288.574219,48.2421875 C288.574219,44.4661458 287.630208,41.7480469 285.742188,40.0878906 C283.854167,38.4277344 280.664062,37.5976562 276.171875,37.5976562 L276.171875,37.5976562 L251.367188,37.5976562 C246.875,37.5976562 243.684896,38.4114583 241.796875,40.0390625 C239.908854,41.6666667 238.964844,44.4010417 238.964844,48.2421875 C238.964844,51.7578125 239.892578,54.4270833 241.748047,56.25 C243.603516,58.0729167 246.289062,58.984375 249.804688,58.984375 L249.804688,58.984375 L251.367188,58.984375 L278.613281,120.605469 L278.613281,120.605469 L278.787231,121.040344 C278.899129,121.320089 279.036458,121.663411 279.199219,122.070312 C281.477865,127.539062 285.872396,130.273438 292.382812,130.273438 Z" id="v" fill="#FB526A"></path>
                <path d="M415.234375,130.273438 C428.580729,130.273438 439.778646,128.059896 448.828125,123.632812 C457.877604,119.205729 462.402344,113.932292 462.402344,107.8125 C462.402344,105.013021 461.63737,102.718099 460.107422,100.927734 C458.577474,99.1373698 456.608073,98.2421875 454.199219,98.2421875 C452.571615,98.2421875 447.81901,100.211589 439.941406,104.150391 C432.063802,108.089193 424.088542,110.058594 416.015625,110.058594 C407.942708,110.058594 401.48112,108.268229 396.630859,104.6875 C391.780599,101.106771 388.509115,95.703125 386.816406,88.4765625 L386.816406,88.4765625 L449.804688,88.4765625 C455.598958,88.4765625 459.423828,87.7604167 461.279297,86.328125 C463.134766,84.8958333 464.0625,82.2591146 464.0625,78.4179688 C464.0625,66.3736979 459.440104,56.2011719 450.195312,47.9003906 C440.950521,39.5996094 429.296875,35.4492188 415.234375,35.4492188 C399.479167,35.4492188 386.669922,39.8763021 376.806641,48.7304688 C366.943359,57.5846354 362.011719,68.9453125 362.011719,82.8125 C362.011719,96.7447917 366.943359,108.138021 376.806641,116.992188 C386.669922,125.846354 399.479167,130.273438 415.234375,130.273438 Z M439.453125,73.2421875 L386.816406,73.2421875 C388.509115,66.8619792 391.520182,62.093099 395.849609,58.9355469 C400.179036,55.7779948 405.891927,54.1992188 412.988281,54.1992188 C420.345052,54.1992188 426.318359,55.859375 430.908203,59.1796875 C435.498047,62.5 438.346354,67.1875 439.453125,73.2421875 L439.453125,73.2421875 Z" id="e" fill="#FAEA07"></path>
                <path d="M566.40625,127.832031 C570.833333,127.832031 573.974609,126.985677 575.830078,125.292969 C577.685547,123.60026 578.613281,120.833333 578.613281,116.992188 C578.613281,113.216146 577.701823,110.514323 575.878906,108.886719 C574.05599,107.259115 570.898438,106.445312 566.40625,106.445312 L566.40625,106.445312 L545.410156,106.445312 L545.410156,4.19921875 C545.410156,2.89713542 544.905599,1.87174479 543.896484,1.12304688 C542.88737,0.374348958 541.471354,0 539.648438,0 L539.648438,0 L510.449219,0 C505.957031,0 502.766927,0.846354167 500.878906,2.5390625 C498.990885,4.23177083 498.046875,6.99869792 498.046875,10.8398438 C498.046875,14.6158854 499.007161,17.3665365 500.927734,19.0917969 C502.848307,20.8170573 506.022135,21.6796875 510.449219,21.6796875 L510.449219,21.6796875 L521.191406,21.6796875 L521.191406,106.445312 L500.195312,106.445312 C495.703125,106.445312 492.561849,107.242839 490.771484,108.837891 C488.98112,110.432943 488.085938,113.151042 488.085938,116.992188 C488.085938,120.833333 489.013672,123.60026 490.869141,125.292969 C492.724609,126.985677 495.833333,127.832031 500.195312,127.832031 L500.195312,127.832031 L566.40625,127.832031 Z" id="l" fill="#9FEA48"></path>
                <path d="M653.417969,130.273438 C669.238281,130.273438 682.063802,125.846354 691.894531,116.992188 C701.72526,108.138021 706.640625,96.7447917 706.640625,82.8125 C706.640625,68.9453125 701.72526,57.5846354 691.894531,48.7304688 C682.063802,39.8763021 669.238281,35.4492188 653.417969,35.4492188 C637.727865,35.4492188 624.951172,39.8763021 615.087891,48.7304688 C605.224609,57.5846354 600.292969,68.9453125 600.292969,82.8125 C600.292969,96.7447917 605.208333,108.138021 615.039062,116.992188 C624.869792,125.846354 637.66276,130.273438 653.417969,130.273438 Z M653.417969,109.667969 C645.800781,109.667969 639.534505,107.11263 634.619141,102.001953 C629.703776,96.891276 627.246094,90.4296875 627.246094,82.6171875 C627.246094,74.8697917 629.703776,68.5058594 634.619141,63.5253906 C639.534505,58.5449219 645.800781,56.0546875 653.417969,56.0546875 C661.10026,56.0546875 667.399089,58.5449219 672.314453,63.5253906 C677.229818,68.5058594 679.6875,74.8697917 679.6875,82.6171875 C679.6875,90.4296875 677.213542,96.891276 672.265625,102.001953 C667.317708,107.11263 661.035156,109.667969 653.417969,109.667969 Z" id="o" fill="#17CC59"></path>
                <path d="M767.285156,166.601562 C771.777344,166.601562 774.967448,165.78776 776.855469,164.160156 C778.74349,162.532552 779.6875,159.830729 779.6875,156.054688 C779.6875,152.213542 778.727214,149.446615 776.806641,147.753906 C774.886068,146.061198 771.71224,145.214844 767.285156,145.214844 L767.285156,145.214844 L754.882812,145.214844 L754.882812,118.652344 C758.268229,121.451823 762.255859,123.583984 766.845703,125.048828 C771.435547,126.513672 776.367188,127.246094 781.640625,127.246094 C794.596354,127.246094 805.338542,122.802734 813.867188,113.916016 C822.395833,105.029297 826.660156,93.8151042 826.660156,80.2734375 C826.660156,67.3177083 822.265625,56.5755208 813.476562,48.046875 C804.6875,39.5182292 793.619792,35.2539062 780.273438,35.2539062 C774.348958,35.2539062 769.026693,36.3769531 764.306641,38.6230469 C759.586589,40.8691406 755.566406,44.2057292 752.246094,48.6328125 L752.246094,48.6328125 L752.246094,41.6015625 C752.246094,40.2994792 751.790365,39.3066406 750.878906,38.6230469 C749.967448,37.9394531 748.567708,37.5976562 746.679688,37.5976562 L746.679688,37.5976562 L731.640625,37.5976562 C727.148438,37.5976562 723.990885,38.4114583 722.167969,40.0390625 C720.345052,41.6666667 719.433594,44.4010417 719.433594,48.2421875 C719.433594,51.7578125 720.345052,54.4270833 722.167969,56.25 C723.990885,58.0729167 726.627604,58.984375 730.078125,58.984375 L730.078125,58.984375 L731.640625,58.984375 L731.640625,145.214844 L725.878906,145.214844 C721.451823,145.214844 718.310547,146.061198 716.455078,147.753906 C714.599609,149.446615 713.671875,152.213542 713.671875,156.054688 C713.671875,159.895833 714.583333,162.613932 716.40625,164.208984 C718.229167,165.804036 721.386719,166.601562 725.878906,166.601562 L725.878906,166.601562 L767.285156,166.601562 Z M777.441406,106.835938 C770.996094,106.835938 765.690104,104.459635 761.523438,99.7070312 C757.356771,94.9544271 755.273438,88.8671875 755.273438,81.4453125 C755.273438,74.0234375 757.356771,67.9361979 761.523438,63.1835938 C765.690104,58.4309896 770.996094,56.0546875 777.441406,56.0546875 C783.951823,56.0546875 789.290365,58.4309896 793.457031,63.1835938 C797.623698,67.9361979 799.707031,74.0234375 799.707031,81.4453125 C799.707031,88.8020833 797.607422,94.8730469 793.408203,99.6582031 C789.208984,104.443359 783.886719,106.835938 777.441406,106.835938 Z" id="p" fill="#9FEA48"></path>
                <path d="M864.648438,127.832031 C868.489583,127.832031 871.223958,127.001953 872.851562,125.341797 C874.479167,123.681641 875.292969,120.898438 875.292969,116.992188 C875.292969,113.476562 874.527995,110.839844 872.998047,109.082031 C871.468099,107.324219 869.173177,106.445312 866.113281,106.445312 L866.113281,106.445312 L864.648438,106.445312 L864.648438,72.265625 C864.648438,66.9270833 865.576172,62.7929688 867.431641,59.8632812 C869.287109,56.9335938 871.842448,55.46875 875.097656,55.46875 C877.701823,55.46875 879.654948,56.5429688 880.957031,58.6914062 C882.259115,60.8398438 882.910156,64.0950521 882.910156,68.4570312 L882.910156,68.4570312 L882.910156,123.632812 C882.910156,124.934896 883.43099,125.960286 884.472656,126.708984 C885.514323,127.457682 886.914062,127.832031 888.671875,127.832031 L888.671875,127.832031 L905.273438,127.832031 C909.114583,127.832031 911.848958,127.001953 913.476562,125.341797 C915.104167,123.681641 915.917969,120.898438 915.917969,116.992188 C915.917969,113.541667 915.136719,110.921224 913.574219,109.130859 C912.011719,107.340495 909.733073,106.445312 906.738281,106.445312 L906.738281,106.445312 L905.273438,106.445312 L905.273438,72.265625 C905.273438,66.8619792 906.16862,62.7115885 907.958984,59.8144531 C909.749349,56.9173177 912.272135,55.46875 915.527344,55.46875 C918.13151,55.46875 920.117188,56.5429688 921.484375,58.6914062 C922.851562,60.8398438 923.535156,64.0950521 923.535156,68.4570312 L923.535156,68.4570312 L923.535156,123.632812 C923.535156,124.934896 924.023438,125.960286 925,126.708984 C925.976562,127.457682 927.34375,127.832031 929.101562,127.832031 L929.101562,127.832031 L945.703125,127.832031 C949.544271,127.832031 952.26237,127.001953 953.857422,125.341797 C955.452474,123.681641 956.25,120.898438 956.25,116.992188 C956.25,113.541667 955.485026,110.921224 953.955078,109.130859 C952.42513,107.340495 950.130208,106.445312 947.070312,106.445312 L947.070312,106.445312 L945.703125,106.445312 L945.703125,69.4335938 C945.703125,57.1289062 943.75,48.3561198 939.84375,43.1152344 C935.9375,37.874349 929.557292,35.2539062 920.703125,35.2539062 C916.601562,35.2539062 912.760417,36.0188802 909.179688,37.5488281 C905.598958,39.078776 902.441406,41.3085938 899.707031,44.2382812 C897.623698,41.1783854 895.182292,38.9160156 892.382812,37.4511719 C889.583333,35.9863281 886.295573,35.2539062 882.519531,35.2539062 C878.352865,35.2539062 874.576823,36.1165365 871.191406,37.8417969 C867.80599,39.5670573 864.908854,42.0898438 862.5,45.4101562 C862.5,42.3502604 862.027995,40.2832031 861.083984,39.2089844 C860.139974,38.1347656 858.333333,37.5976562 855.664062,37.5976562 L855.664062,37.5976562 L842.480469,37.5976562 C838.639323,37.5976562 835.888672,38.4277344 834.228516,40.0878906 C832.568359,41.7480469 831.738281,44.4661458 831.738281,48.2421875 C831.738281,51.6927083 832.535807,54.3457031 834.130859,56.2011719 C835.725911,58.0566406 838.053385,58.984375 841.113281,58.984375 L841.113281,58.984375 L842.480469,58.984375 L842.480469,106.445312 L841.113281,106.445312 C838.053385,106.445312 835.758464,107.340495 834.228516,109.130859 C832.698568,110.921224 831.933594,113.541667 831.933594,116.992188 C831.933594,120.833333 832.747396,123.60026 834.375,125.292969 C836.002604,126.985677 838.704427,127.832031 842.480469,127.832031 L842.480469,127.832031 L864.648438,127.832031 Z" id="m" fill="#FAEA07"></path>
                <path d="M1015.33203,130.273438 C1028.67839,130.273438 1039.8763,128.059896 1048.92578,123.632812 C1057.97526,119.205729 1062.5,113.932292 1062.5,107.8125 C1062.5,105.013021 1061.73503,102.718099 1060.20508,100.927734 C1058.67513,99.1373698 1056.70573,98.2421875 1054.29688,98.2421875 C1052.66927,98.2421875 1047.91667,100.211589 1040.03906,104.150391 C1032.16146,108.089193 1024.1862,110.058594 1016.11328,110.058594 C1008.04036,110.058594 1001.57878,108.268229 996.728516,104.6875 C991.878255,101.106771 988.606771,95.703125 986.914062,88.4765625 L986.914062,88.4765625 L1049.90234,88.4765625 C1055.69661,88.4765625 1059.52148,87.7604167 1061.37695,86.328125 C1063.23242,84.8958333 1064.16016,82.2591146 1064.16016,78.4179688 C1064.16016,66.3736979 1059.53776,56.2011719 1050.29297,47.9003906 C1041.04818,39.5996094 1029.39453,35.4492188 1015.33203,35.4492188 C999.576823,35.4492188 986.767578,39.8763021 976.904297,48.7304688 C967.041016,57.5846354 962.109375,68.9453125 962.109375,82.8125 C962.109375,96.7447917 967.041016,108.138021 976.904297,116.992188 C986.767578,125.846354 999.576823,130.273438 1015.33203,130.273438 Z M1039.55078,73.2421875 L986.914062,73.2421875 C988.606771,66.8619792 991.617839,62.093099 995.947266,58.9355469 C1000.27669,55.7779948 1005.98958,54.1992188 1013.08594,54.1992188 C1020.44271,54.1992188 1026.41602,55.859375 1031.00586,59.1796875 C1035.5957,62.5 1038.44401,67.1875 1039.55078,73.2421875 L1039.55078,73.2421875 Z" id="e" fill="#FB526A"></path>
                <path d="M1117.96875,127.832031 C1122.33073,127.832031 1125.45573,126.985677 1127.34375,125.292969 C1129.23177,123.60026 1130.17578,120.833333 1130.17578,116.992188 C1130.17578,113.411458 1129.26432,110.725911 1127.44141,108.935547 C1125.61849,107.145182 1122.85156,106.25 1119.14062,106.25 L1119.14062,106.25 L1117.96875,106.25 L1117.96875,78.0273438 C1117.96875,71.5169271 1119.67773,66.2923177 1123.0957,62.3535156 C1126.51367,58.4147135 1130.92448,56.4453125 1136.32812,56.4453125 C1141.40625,56.4453125 1145.03581,58.0891927 1147.2168,61.3769531 C1149.39779,64.6647135 1150.48828,70.2148438 1150.48828,78.0273438 L1150.48828,78.0273438 L1150.48828,106.25 L1149.31641,106.25 C1145.60547,106.25 1142.82227,107.145182 1140.9668,108.935547 C1139.11133,110.725911 1138.18359,113.411458 1138.18359,116.992188 C1138.18359,120.833333 1139.14388,123.60026 1141.06445,125.292969 C1142.98503,126.985677 1146.1263,127.832031 1150.48828,127.832031 L1150.48828,127.832031 L1174.51172,127.832031 C1178.9388,127.832031 1182.08008,126.985677 1183.93555,125.292969 C1185.79102,123.60026 1186.71875,120.833333 1186.71875,116.992188 C1186.71875,113.411458 1185.80729,110.725911 1183.98438,108.935547 C1182.16146,107.145182 1179.42708,106.25 1175.78125,106.25 L1175.78125,106.25 L1174.51172,106.25 L1174.51172,73.6328125 C1174.51172,60.6770833 1171.95638,51.0416667 1166.8457,44.7265625 C1161.73503,38.4114583 1153.97135,35.2539062 1143.55469,35.2539062 C1137.4349,35.2539062 1132.04753,36.4420573 1127.39258,38.8183594 C1122.73763,41.1946615 1118.91276,44.7265625 1115.91797,49.4140625 L1115.91797,49.4140625 L1115.91797,41.796875 C1115.91797,40.4296875 1115.44596,39.3880208 1114.50195,38.671875 C1113.55794,37.9557292 1112.17448,37.5976562 1110.35156,37.5976562 L1110.35156,37.5976562 L1093.75,37.5976562 C1089.25781,37.5976562 1086.06771,38.4440104 1084.17969,40.1367188 C1082.29167,41.8294271 1081.34766,44.5963542 1081.34766,48.4375 C1081.34766,51.8880208 1082.25911,54.5084635 1084.08203,56.2988281 C1085.90495,58.0891927 1088.57422,58.984375 1092.08984,58.984375 L1092.08984,58.984375 L1093.75,58.984375 L1093.75,106.25 L1092.57812,106.25 C1088.86719,106.25 1086.10026,107.145182 1084.27734,108.935547 C1082.45443,110.725911 1081.54297,113.411458 1081.54297,116.992188 C1081.54297,120.833333 1082.48698,123.60026 1084.375,125.292969 C1086.26302,126.985677 1089.38802,127.832031 1093.75,127.832031 L1093.75,127.832031 L1117.96875,127.832031 Z" id="n" fill="#C039CF"></path>
                <path d="M1258.39844,129.785156 C1269.92188,129.785156 1280.22461,127.718099 1289.30664,123.583984 C1298.38867,119.44987 1302.92969,114.876302 1302.92969,109.863281 C1302.92969,106.86849 1301.9694,104.313151 1300.04883,102.197266 C1298.12826,100.08138 1295.83333,99.0234375 1293.16406,99.0234375 C1290.82031,99.0234375 1286.19792,100.488281 1279.29688,103.417969 C1272.39583,106.347656 1266.40625,107.8125 1261.32812,107.8125 C1255.92448,107.8125 1252.14844,106.510417 1250,103.90625 C1247.85156,101.302083 1246.77734,96.484375 1246.77734,89.453125 L1246.77734,89.453125 L1246.77734,64.453125 L1276.5625,64.453125 C1280.98958,64.453125 1284.16341,63.6067708 1286.08398,61.9140625 C1288.00456,60.2213542 1288.96484,57.4544271 1288.96484,53.6132812 C1288.96484,49.8372396 1288.02083,47.1354167 1286.13281,45.5078125 C1284.24479,43.8802083 1281.05469,43.0664062 1276.5625,43.0664062 L1276.5625,43.0664062 L1246.77734,43.0664062 L1246.77734,20.2148438 C1246.77734,15.7226562 1245.84961,12.5651042 1243.99414,10.7421875 C1242.13867,8.91927083 1239.0625,8.0078125 1234.76562,8.0078125 C1230.46875,8.0078125 1227.39258,8.91927083 1225.53711,10.7421875 C1223.68164,12.5651042 1222.75391,15.7226562 1222.75391,20.2148438 L1222.75391,20.2148438 L1222.75391,43.0664062 L1213.57422,43.0664062 C1209.08203,43.0664062 1205.92448,43.8639323 1204.10156,45.4589844 C1202.27865,47.0540365 1201.36719,49.7721354 1201.36719,53.6132812 C1201.36719,57.4544271 1202.29492,60.2213542 1204.15039,61.9140625 C1206.00586,63.6067708 1209.14714,64.453125 1213.57422,64.453125 L1213.57422,64.453125 L1222.75391,64.453125 L1222.75391,91.6015625 C1222.75391,100.130208 1223.20964,106.217448 1224.12109,109.863281 C1225.03255,113.509115 1226.5625,116.634115 1228.71094,119.238281 C1231.64062,122.623698 1235.64453,125.227865 1240.72266,127.050781 C1245.80078,128.873698 1251.69271,129.785156 1258.39844,129.785156 Z" id="t" fill="#4F34CA"></path>
            </g>
        </g>
    </g>
</svg>